<?xml version="1.0" encoding="iso-8859-1"?>
<!-- Generator: Adobe Illustrator 16.0.0, SVG Export Plug-In . SVG Version: 6.00 Build 0)  -->
<!DOCTYPE svg PUBLIC "-//W3C//DTD SVG 1.1//EN" "http://www.w3.org/Graphics/SVG/1.1/DTD/svg11.dtd">
<svg version="1.1" id="Capa_1" xmlns="http://www.w3.org/2000/svg" xmlns:xlink="http://www.w3.org/1999/xlink" x="0px" y="0px"
	 width="38.702px" height="38.702px" viewBox="0 0 38.702 38.702" style="enable-background:new 0 0 38.702 38.702;"
	 xml:space="preserve">
<g>
	<g>
		<path d="M38.595,20.619C39.831,9.526,30.156,0.845,19.697,0.461c-0.027-0.001-0.054,0-0.081,0.001
			c-0.045,0.002-0.101,0.008-0.123,0.003c-0.013-0.002-0.026-0.004-0.043-0.003C9.346,0.832,1.238,7.914,0.107,18.072
			c-1.235,11.094,8.439,19.774,18.898,20.157C29.17,38.6,37.506,30.397,38.595,20.619z M36.754,20.64
			c-0.041,0.768-0.139,1.522-0.288,2.264c-0.109,0.542-0.541,1.293-0.927,1.689c-0.293,0.3-0.585,0.601-0.878,0.899
			c-0.387,0.396-0.493,0.317-0.274-0.188c0.479-1.104,0.846-2.281,1.091-3.522c0.107-0.542,0.419-1.244,0.731-1.562
			C36.521,19.898,36.784,20.086,36.754,20.64z M36.471,16.755c0.012,0.052,0.025,0.104,0.035,0.155
			c0.031,0.164,0.058,0.328,0.083,0.491c0.042,0.271-0.124,0.687-0.361,0.926c-0.236,0.239-0.427,0.109-0.449-0.288
			c-0.021-0.396,0.103-0.879,0.3-1.078C36.274,16.763,36.451,16.669,36.471,16.755z M35.458,14.361
			c0.159-0.171,0.424,0.085,0.565,0.578c0.143,0.494,0.092,1.057-0.09,1.251c-0.181,0.192-0.393-0.076-0.513-0.593
			C35.299,15.08,35.298,14.532,35.458,14.361z M2.56,14.415c0.346-1.181,0.825-2.312,1.42-3.377c0.27-0.481,0.828-1.175,1.217-1.566
			C6.496,8.16,7.798,6.853,9.1,5.546c0.39-0.392,1.078-0.958,1.555-1.236c2.533-1.482,5.435-2.388,8.458-2.521
			c7.215,0.302,13.057,4.292,15.894,10.436c0.231,0.501,0.271,1.042,0.116,1.194c-0.155,0.153-0.44-0.142-0.679-0.641
			c-0.305-0.642-0.656-1.258-1.05-1.849c-0.307-0.46-0.432-0.944-0.249-1.106c0.184-0.162,0.271-0.364,0.189-0.449
			c-0.08-0.085-0.279-0.024-0.446,0.138c-0.167,0.16-0.476,0.075-0.704-0.18c-0.228-0.255-0.293-0.58-0.135-0.732
			c0.157-0.153,0.274-0.288,0.26-0.299C32.295,8.288,32.158,8.4,32,8.55c-0.157,0.149-0.164,0.144-0.009-0.01
			c0.153-0.151,0.252-0.302,0.214-0.335c-0.037-0.033-0.191,0.061-0.344,0.207c-0.151,0.147-0.585-0.058-0.993-0.429
			c-0.053-0.047-0.105-0.095-0.158-0.142c-0.414-0.366-0.66-0.74-0.528-0.863c0.131-0.123-0.003-0.391-0.312-0.581
			c-0.31-0.192-0.655-0.255-0.765-0.154c-0.108,0.102-0.454,0.008-0.778-0.192C28,5.85,27.798,5.632,27.882,5.555
			c0.084-0.078-0.004-0.212-0.2-0.296c-0.196-0.083-0.417-0.096-0.49-0.03c-0.072,0.064-0.446-0.047-0.843-0.231
			c-0.396-0.184-0.704-0.339-0.677-0.366c0.027-0.026-0.047-0.074-0.165-0.104c-0.119-0.031-0.229-0.041-0.243-0.025
			s-0.445-0.135-0.971-0.305c-1.483-0.481-3.029-0.777-4.596-0.843c-6.512-0.275-12.114,3.631-14.91,9.107
			c-0.251,0.492-0.748,1.219-1.142,1.606c-0.207,0.204-0.415,0.409-0.623,0.614C2.628,15.068,2.405,14.945,2.56,14.415z
			 M20.567,33.924c-0.548,0.065-1.444,0.065-1.994,0.007C1.852,32.144,0.135,6.998,17.922,4.728
			c7.723-0.986,14.118,5.174,15.654,12.261C35.42,25.507,28.647,32.97,20.567,33.924z M1.922,18.816
			c0-0.494,0.328-1.204,0.702-1.589c0.374-0.384,0.596-0.347,0.518,0.09c-0.047,0.262-0.088,0.526-0.123,0.792
			c-0.012,0.09-0.017,0.179-0.021,0.267c-0.007,0.148-0.247,0.505-0.533,0.801C2.179,19.471,1.922,19.309,1.922,18.816z
			 M3.139,23.968c-0.16,0.158-0.432-0.139-0.578-0.672c-0.006-0.022-0.013-0.047-0.019-0.07c-0.145-0.533-0.115-1.104,0.033-1.268
			c0.149-0.163,0.146-0.176-0.006-0.028c-0.152,0.146-0.297,0.173-0.325,0.058c-0.017-0.069-0.034-0.139-0.047-0.209
			c-0.024-0.127-0.045-0.253-0.064-0.38c-0.032-0.21,0.133-0.567,0.365-0.795c0.232-0.229,0.423,0.035,0.473,0.585
			c0.046,0.516,0.122,1.021,0.223,1.52C3.304,23.25,3.298,23.81,3.139,23.968z M5.249,28.394c-0.167,0.154-0.544-0.096-0.817-0.574
			c-0.29-0.51-0.559-1.033-0.803-1.567C3.4,25.75,3.356,25.21,3.503,25.06c0.147-0.151,0.419,0.148,0.65,0.649
			c0.25,0.541,0.533,1.064,0.846,1.569C5.289,27.749,5.415,28.239,5.249,28.394z M20.816,36.86c-1.706,0.188-3.352,0.078-4.92-0.264
			c-0.539-0.118-0.96-0.252-0.95-0.265c0.011-0.011-0.399-0.18-0.904-0.404c-0.038-0.018-0.075-0.034-0.113-0.051
			c-0.503-0.228-0.939-0.399-0.991-0.35c-0.052,0.05-0.505-0.087-0.995-0.341c-0.336-0.174-0.667-0.36-0.99-0.558
			c-0.472-0.287-0.764-0.617-0.672-0.709c0.091-0.092-0.02-0.307-0.242-0.486c-0.222-0.181-0.482-0.255-0.588-0.158
			c-0.105,0.096-0.546-0.099-0.962-0.461c-0.396-0.344-0.776-0.706-1.142-1.084c-0.384-0.397-0.565-0.851-0.429-0.988
			c0.137-0.139,0.217-0.292,0.179-0.343s-0.188,0.018-0.334,0.154c-0.147,0.136-0.467,0.01-0.701-0.293
			c-0.235-0.304-0.287-0.676-0.126-0.823S6.118,29,5.989,28.787c-0.129-0.213,0.033-0.024,0.389,0.397
			c3.054,3.622,7.754,5.948,12.626,6.154c0.027,0.002,0.055,0.001,0.082,0c0.046-0.002,0.102-0.007,0.124-0.003
			c0.013,0.002,0.025,0.004,0.042,0.003c2.529-0.106,4.895-0.702,7.012-1.698c0.5-0.235,0.729-0.284,0.528-0.079
			c-0.201,0.206-0.154,0.305,0.1,0.212s0.751-0.474,1.114-0.841c0.363-0.368,1.028-0.918,1.463-1.26
			c1-0.781,1.904-1.676,2.697-2.671c0.344-0.432,0.914-1.117,1.303-1.509c0.569-0.573,1.136-1.145,1.698-1.712
			c0.389-0.392,0.558-0.286,0.343,0.223C33.056,31.813,27.316,36.144,20.816,36.86z"/>
		<path d="M21.566,9.353c-2.04,0.323-2.298,2.52-1.579,4.229c0.887,2.108,7.258,4.68,4.419,7.504
			c-1.195,1.19-4.603,3.383-4.603,5.233c0,2.056,0.151,3.885,2.614,2.597c1.884-0.984,3.586-3.482,5.073-4.961
			c0.943-0.938,4.974-3.707,4.312-5.308c-0.004-0.01-0.013-0.019-0.021-0.024c-0.016-0.011-0.341-0.34-0.729-0.731
			c-1.719-1.729-3.428-3.429-5.136-5.128C24.963,11.816,23.203,9.095,21.566,9.353z M21.688,11.693c0.023-0.33,0.177-0.464,0.34-0.3
			c0.164,0.164,0.152,0.432-0.026,0.598C21.82,12.157,21.666,12.022,21.688,11.693z M29.667,20.148
			c-0.73,1.235-2.865,2.808-3.409,3.35c-1.647,1.639-3.293,3.276-4.94,4.914c-0.642,0.64,0.417-0.529,0.417-1.262
			c0-1.454,0.146-1.866,1.148-2.862c0.913-0.909,4.19-3.157,4.19-4.695c0-0.086-0.01-0.166-0.021-0.246
			c-0.02-0.135,0.182-0.47,0.456-0.748c0.274-0.28,0.267-0.312-0.011-0.064s-0.577,0-0.822-0.495
			c-0.103-0.208-0.225-0.41-0.361-0.604c-0.314-0.454-0.527-0.873-0.398-0.995c0.128-0.123,0.207-0.248,0.174-0.28
			c-0.032-0.032-0.16,0.042-0.286,0.166c-0.127,0.123-0.128,0.123-0.002-0.001c0.126-0.125,0.217-0.236,0.203-0.25
			s-0.127,0.075-0.253,0.198c-0.126,0.124-0.542-0.096-0.947-0.471c-0.101-0.094-0.202-0.186-0.303-0.277
			c-0.409-0.371-0.621-0.782-0.477-0.916c0.146-0.134,0.058-0.447-0.194-0.699c-0.253-0.252-0.581-0.34-0.733-0.199
			c-0.152,0.142-0.515,0.047-0.775-0.244c-0.262-0.29-0.237-0.739-0.007-0.956c0.232-0.218,0.739-0.079,1.133,0.309
			c1.922,1.897,3.823,3.789,5.724,5.679C29.561,18.887,29.949,19.672,29.667,20.148z"/>
		<path d="M18.845,13.266c0.942-0.938,0.664-4.185-1.159-3.874c-1.762,0.3-2.972,2.1-4.148,3.271
			c-2.087,2.076-4.174,4.152-6.261,6.229c-0.013,0.013-0.025,0.024-0.037,0.037c-0.021,0.02-0.052,0.062-0.075,0.089
			c-0.018,0.021-0.033,0.036-0.039,0.052c-0.623,1.52,2.839,3.83,3.742,4.729c1.445,1.438,3.511,4.534,5.416,5.321
			c1.619,0.669,2.832-0.38,2.832-1.969c0-2.979-2.546-4.414-4.58-6.438C12.189,18.376,17.285,14.819,18.845,13.266z M11.845,19.098
			c0,2.213,2.223,3.63,3.685,5.084c0.575,0.571,1.336,1.121,1.655,1.881c0.072,0.172,0.075,0.468,0.058,0.768
			c-0.023,0.427-0.171,0.656-0.315,0.513c-0.145-0.145-0.143-0.372,0.004-0.512s0.254-0.266,0.238-0.282
			c-0.017-0.016-0.148,0.087-0.292,0.229c-0.145,0.142-0.579-0.06-0.971-0.449c-0.16-0.159-0.32-0.318-0.481-0.478
			c-0.392-0.391-0.588-0.816-0.439-0.954c0.148-0.139,0.065-0.453-0.187-0.703c-0.252-0.25-0.576-0.342-0.725-0.204
			c-0.148,0.138-0.4,0.12-0.561-0.041c-0.098-0.097-0.195-0.194-0.293-0.292c-0.052-0.052-0.12-0.114-0.2-0.185
			c-0.112-0.101-0.081-0.295,0.073-0.438c0.154-0.144,0.226-0.312,0.161-0.378s-0.243,0.007-0.396,0.16
			c-0.153,0.153-0.62-0.009-1.039-0.37c-0.107-0.092-0.216-0.186-0.326-0.284c-0.415-0.364-0.593-0.822-0.413-1.008
			c0.18-0.185,0.19-0.472,0.022-0.639c-0.168-0.168-0.454-0.155-0.636,0.026c-0.183,0.183-0.651,0.014-0.978-0.433
			c-0.095-0.13-0.18-0.257-0.25-0.379c-0.275-0.479,0.109-1.266,0.501-1.655c2.619-2.604,5.237-5.21,7.856-7.814
			c0.649-0.646-0.41,0.558-0.41,1.282c0,1.456-0.138,1.881-1.142,2.88C15.145,15.315,11.845,17.583,11.845,19.098z"/>
	</g>
</g>
<g>
</g>
<g>
</g>
<g>
</g>
<g>
</g>
<g>
</g>
<g>
</g>
<g>
</g>
<g>
</g>
<g>
</g>
<g>
</g>
<g>
</g>
<g>
</g>
<g>
</g>
<g>
</g>
<g>
</g>
</svg>
