<svg id="Capa_1" enable-background="new 0 0 512 512" height="512" viewBox="0 0 512 512" width="512" xmlns="http://www.w3.org/2000/svg" xmlns:xlink="http://www.w3.org/1999/xlink"><linearGradient id="SVGID_1_" gradientUnits="userSpaceOnUse" x1="256" x2="256" y1="512" y2="0"><stop offset="0" stop-color="#ffc2cc"/><stop offset="1" stop-color="#fff2f4"/></linearGradient><linearGradient id="SVGID_2_" gradientUnits="userSpaceOnUse" x1="256" x2="256" y1="407" y2="105"><stop offset="0" stop-color="#ffa68d"/><stop offset="1" stop-color="#fd3a84"/></linearGradient><g><g><circle cx="256" cy="256" fill="url(#SVGID_1_)" r="256"/></g><g><g><path d="m238.235 291.529c0-4.91-3.973-8.882-8.882-8.882h-44.412v-17.765h142.118v17.765h-44.412c-4.909 0-8.882 3.973-8.882 8.882v62.177h124.353v-62.177c0-4.91-3.973-8.882-8.882-8.882h-44.412v-26.647c0-4.91-3.973-8.882-8.882-8.882h-71.059v-35.53h44.412c19.586 0 35.529-15.934 35.529-35.529 0-16.776-11.693-30.88-27.358-34.584-3.748-20.714-21.912-36.475-43.701-36.475-14.486 0-27.948 7.165-36.171 18.78-15.232-3.817-31.435 3.643-39.034 16.993-17.643 2.056-31.383 17.097-31.383 35.287 0 19.595 15.943 35.529 35.529 35.529h44.412v35.53h-71.059c-4.91 0-8.882 3.973-8.882 8.882v26.647h-44.412c-4.91 0-8.882 3.973-8.882 8.882v62.177h124.353v-62.178zm159.883 79.942h-124.353c-4.905 0-8.882 3.976-8.882 8.882v8.882c0 9.811 7.953 17.765 17.765 17.765h106.588c9.812 0 17.765-7.954 17.765-17.765v-8.882c-.001-4.906-3.978-8.882-8.883-8.882zm-159.883 0h-124.353c-4.905 0-8.882 3.976-8.882 8.882v8.882c0 9.811 7.953 17.765 17.765 17.765h106.588c9.812 0 17.765-7.954 17.765-17.765v-8.882c0-4.906-3.977-8.882-8.883-8.882z" fill="url(#SVGID_2_)"/></g></g></g></svg>