<svg id="icons" enable-background="new 0 0 64 64" height="512" viewBox="0 0 64 64" width="512" xmlns="http://www.w3.org/2000/svg"><path d="m32 18c7.73 0 14 6.28 14 14 0 7.73-6.27 14-14 14s-14-6.27-14-14c0-7.72 6.27-14 14-14z" fill="#656d78"/><g fill="#545c66"><path d="m23.002 33.006c-.256 0-.512-.098-.707-.293-.391-.391-.391-1.023 0-1.414l4.001-4.002c.391-.391 1.023-.391 1.414 0s.391 1.023 0 1.414l-4.001 4.002c-.195.195-.451.293-.707.293z"/><path d="m27.003 37.007c-.256 0-.512-.098-.707-.293l-4.001-4.001c-.391-.391-.391-1.023 0-1.414s1.023-.391 1.414 0l4.001 4.001c.391.391.391 1.023 0 1.414-.195.195-.451.293-.707.293z"/><path d="m40.997 33.006c-.256 0-.512-.098-.707-.293l-4.001-4.002c-.391-.391-.391-1.023 0-1.414s1.023-.391 1.414 0l4.001 4.002c.391.391.391 1.023 0 1.414-.195.195-.451.293-.707.293z"/><path d="m36.996 37.007c-.256 0-.512-.098-.707-.293-.391-.391-.391-1.023 0-1.414l4.001-4.001c.391-.391 1.023-.391 1.414 0s.391 1.023 0 1.414l-4.001 4.001c-.195.195-.451.293-.707.293z"/><path d="m30.993 40.01c-.047 0-.095-.003-.143-.01-.547-.078-.927-.585-.849-1.132l1.999-14.008c.078-.546.586-.923 1.132-.849.547.078.927.585.849 1.132l-1.999 14.008c-.071.498-.499.859-.989.859z"/></g><path d="m60.987 32.191c-.098 0-.198-.015-.297-.045-.527-.164-.822-.725-.658-1.252.642-2.063.967-4.214.967-6.394 0-11.855-9.645-21.5-21.5-21.5-2.204 0-4.376.332-6.455.986-.525.165-1.087-.126-1.254-.654-.166-.526.127-1.088.654-1.254 2.273-.715 4.646-1.078 7.055-1.078 12.958 0 23.5 10.542 23.5 23.5 0 2.382-.355 4.732-1.057 6.987-.133.43-.528.704-.955.704z" fill="#ffd2a6"/><path d="m3.013 32.191c-.427 0-.821-.274-.955-.703-.701-2.255-1.057-4.605-1.057-6.987 0-12.958 10.542-23.5 23.5-23.5 2.408 0 4.781.363 7.055 1.078.527.166.82.728.654 1.254-.166.528-.729.818-1.254.654-2.079-.654-4.251-.986-6.455-.986-11.855 0-21.5 9.645-21.5 21.5 0 2.18.325 4.331.967 6.394.164.527-.131 1.088-.658 1.252-.099.03-.2.044-.297.044z" fill="#ffd2a6"/><path d="m24.501 62.999c-12.958 0-23.5-10.542-23.5-23.5 0-2.382.355-4.732 1.057-6.987.165-.527.723-.82 1.252-.658.527.164.822.725.658 1.252-.642 2.063-.967 4.214-.967 6.394 0 11.855 9.645 21.5 21.5 21.5 2.204 0 4.376-.332 6.455-.986.525-.164 1.088.127 1.254.654.166.526-.127 1.088-.654 1.254-2.274.714-4.647 1.077-7.055 1.077z" fill="#ffd2a6"/><path d="m39.499 62.999c-2.408 0-4.781-.363-7.055-1.078-.527-.166-.82-.728-.654-1.254.167-.527.728-.819 1.254-.654 2.079.654 4.251.986 6.455.986 11.855 0 21.5-9.645 21.5-21.5 0-2.18-.325-4.331-.967-6.394-.164-.527.131-1.088.658-1.252.53-.162 1.088.131 1.252.658.701 2.255 1.057 4.605 1.057 6.987 0 12.959-10.542 23.501-23.5 23.501z" fill="#ffd2a6"/><path d="m61 29h-1.07c-.553 0-1 .447-1 1s.447 1 1 1h.035c.012.334.035.665.035 1s-.023.666-.035 1h-.035c-.553 0-1 .447-1 1s.447 1 1 1h1.07c1.654 0 3-1.346 3-3s-1.346-3-3-3z" fill="#656d78"/><path d="m35 3c0-1.654-1.346-3-3-3s-3 1.346-3 3v1.07c0 .553.447 1 1 1s1-.447 1-1v-.035c.334-.012.665-.035 1-.035.334 0 .665.023.998.034v.034c-.001.553.446 1.001.998 1.002h.001c.553 0 1-.446 1.001-.998l.002-1.07z" fill="#656d78"/><path d="m4.07 33h-.035c-.012-.334-.035-.665-.035-1s.023-.666.035-1h.035c.553 0 1-.447 1-1s-.447-1-1-1h-1.07c-1.654 0-3 1.346-3 3s1.346 3 3 3h1.07c.553 0 1-.447 1-1s-.447-1-1-1z" fill="#656d78"/><path d="m34 58.93c-.553 0-1 .447-1 1v.035c-.334.012-.665.035-1 .035s-.666-.023-1-.035v-.035c0-.553-.447-1-1-1s-1 .447-1 1v1.07c0 1.654 1.346 3 3 3s3-1.346 3-3v-1.07c0-.553-.447-1-1-1z" fill="#656d78"/><path d="m53.21 53.21c-2.55 2.55-5.44 4.55-8.53 5.99l-.85-1.82-3.38-7.25-.84-1.811c1.85-.859 3.59-2.069 5.12-3.59 1.52-1.529 2.729-3.27 3.59-5.12l1.81.841 7.25 3.38 1.82.85c-1.44 3.09-3.44 5.98-5.99 8.53z" fill="#5d9cec"/><path d="m20.17 57.38-.85 1.82c-3.09-1.44-5.98-3.44-8.53-5.99s-4.55-5.44-5.99-8.53l1.82-.85 7.25-3.38 1.81-.841c.86 1.851 2.07 3.591 3.59 5.12 1.53 1.521 3.271 2.73 5.12 3.59l-.84 1.811z" fill="#5d9cec"/><path d="m6.62 20.17 7.25 3.38-.01.03c-1.19 2.56-1.86 5.41-1.86 8.42 0 3.02.67 5.89 1.87 8.45l-7.25 3.38c-1.41-3.02-2.3-6.33-2.55-9.83-.05-.66-.07-1.33-.07-2s.02-1.34.07-2c.25-3.471 1.13-6.78 2.529-9.79z" fill="#e6e9ed"/><path d="m10.79 10.79c2.55-2.55 5.44-4.55 8.53-5.99l.85 1.82 3.38 7.25.84 1.81c-1.85.86-3.59 2.07-5.12 3.59-1.52 1.53-2.729 3.271-3.59 5.12l-1.81-.84-7.25-3.38-1.82-.851c1.44-3.09 3.44-5.979 5.99-8.529z" fill="#5d9cec"/><path d="m43.83 6.62-3.38 7.25c-2.57-1.2-5.43-1.87-8.45-1.87s-5.89.67-8.45 1.87l-3.38-7.25c3.03-1.42 6.34-2.301 9.83-2.551.66-.049 1.33-.069 2-.069s1.34.02 2 .069c3.49.25 6.8 1.131 9.83 2.551z" fill="#e6e9ed"/><path d="m43.83 6.62.85-1.82c3.09 1.44 5.98 3.44 8.53 5.99s4.55 5.439 5.99 8.529l-1.82.851-7.25 3.38-1.81.84c-.86-1.85-2.07-3.59-3.59-5.12-1.53-1.52-3.271-2.729-5.12-3.59l.84-1.81z" fill="#5d9cec"/><path d="m59.93 30c.05.66.07 1.33.07 2s-.02 1.34-.07 2c-.25 3.49-1.14 6.81-2.55 9.83l-7.25-3.38c1.2-2.56 1.87-5.43 1.87-8.45 0-3.021-.67-5.88-1.87-8.45l7.25-3.38c1.41 3.019 2.3 6.33 2.55 9.83z" fill="#e6e9ed"/><path d="m40.45 50.13 3.38 7.25c-3.03 1.42-6.34 2.3-9.83 2.55-.66.05-1.33.07-2 .07s-1.34-.021-2-.07c-3.49-.25-6.8-1.13-9.83-2.55l3.38-7.25c2.57 1.2 5.43 1.87 8.45 1.87s5.89-.67 8.45-1.87z" fill="#e6e9ed"/></svg>